<?xml version="1.0" standalone="no"?>
<!DOCTYPE svg PUBLIC "-//W3C//DTD SVG 20010904//EN"
 "http://www.w3.org/TR/2001/REC-SVG-20010904/DTD/svg10.dtd">
<svg version="1.0" xmlns="http://www.w3.org/2000/svg"
 width="1024.000000pt" height="1024.000000pt" viewBox="0 0 1024.000000 1024.000000"
 preserveAspectRatio="xMidYMid meet">
<metadata>
Created by potrace 1.14, written by Peter Selinger 2001-2017
</metadata>
<g transform="translate(0.000000,1024.000000) scale(0.100000,-0.100000)"
fill="#000000" stroke="none">
<path d="M0 5120 l0 -5120 5120 0 5120 0 0 5120 0 5120 -5120 0 -5120 0 0
-5120z m4790 4640 c0 -6 -6 -10 -14 -10 -8 0 -22 -10 -30 -22 -18 -25 -21 -17
-5 13 9 18 9 19 -11 7 -11 -7 -18 -19 -15 -26 3 -7 1 -10 -4 -7 -6 3 -14 -3
-20 -12 -5 -10 -13 -14 -18 -10 -4 5 0 13 10 18 18 11 14 29 -6 29 -7 0 -6 -4
3 -10 10 -7 11 -10 3 -11 -7 -1 -18 -2 -23 -3 -6 0 -15 -8 -20 -16 -9 -13 -11
-13 -21 0 -8 12 -9 11 -4 -7 4 -16 1 -23 -14 -28 -12 -3 -26 -3 -32 1 -8 4 -9
3 -5 -4 4 -7 2 -12 -4 -12 -7 0 -10 -6 -7 -14 4 -10 0 -12 -14 -9 -10 3 -19 0
-19 -6 0 -6 -5 -11 -11 -11 -7 0 -18 -8 -26 -17 -8 -10 -12 -13 -9 -7 3 6 -1
11 -9 11 -8 0 -13 -3 -11 -6 6 -9 -21 -31 -28 -24 -12 12 -6 -13 7 -26 10 -11
9 -12 -1 -6 -8 4 -19 0 -27 -11 -8 -11 -15 -14 -15 -9 0 6 -4 3 -10 -5 -6 -9
-5 -20 3 -30 11 -13 10 -13 -5 -1 -24 18 -48 -1 -41 -32 3 -16 2 -18 -5 -8 -8
11 -11 9 -18 -10 -4 -13 -7 -28 -6 -33 2 -5 -4 -6 -12 -3 -9 4 -18 2 -21 -3
-4 -6 0 -10 7 -10 11 0 11 -2 0 -9 -7 -4 -12 -14 -10 -22 2 -8 -4 -13 -14 -13
-10 1 -15 -2 -12 -7 9 -15 13 -49 6 -48 -21 3 -23 -4 -7 -28 10 -16 12 -22 4
-15 -20 19 -31 14 -18 -9 8 -15 8 -19 0 -15 -6 4 -11 3 -11 -3 0 -6 -8 -8 -17
-5 -15 5 -15 4 -3 -4 8 -6 17 -9 20 -7 4 2 7 -2 7 -10 0 -8 -2 -13 -5 -11 -2
3 -10 0 -17 -7 -9 -9 -9 -14 2 -25 17 -18 -2 -48 -21 -33 -9 8 -12 3 -10 -17
2 -39 -13 -75 -28 -66 -7 4 -4 -3 7 -16 11 -12 16 -25 10 -27 -24 -9 -39 -23
-32 -30 5 -4 12 -1 17 7 5 8 12 11 17 7 4 -5 2 -12 -6 -16 -18 -11 -18 -15 -2
-34 7 -10 10 -17 5 -17 -5 0 -2 -5 6 -11 13 -9 13 -10 0 -6 -8 2 -15 9 -15 15
0 5 -3 14 -7 18 -12 12 0 -37 14 -55 11 -14 10 -14 -8 1 -19 16 -20 16 -20 -2
0 -10 3 -17 7 -14 4 2 10 -3 13 -12 3 -8 2 -12 -3 -9 -5 3 -12 1 -16 -5 -3 -5
2 -10 12 -10 14 0 15 -2 5 -9 -11 -6 -10 -11 3 -25 15 -15 15 -16 -1 -16 -16
0 -16 -1 2 -15 19 -15 19 -15 -1 -9 -20 6 -20 5 -1 -10 16 -13 16 -16 5 -16
-19 0 -18 -32 0 -54 12 -14 11 -16 -3 -10 -9 3 -16 1 -16 -5 0 -6 6 -11 13
-11 8 0 7 -4 -3 -10 -8 -5 -10 -10 -3 -10 6 0 10 -8 9 -17 -2 -10 3 -22 10
-28 12 -8 12 -15 0 -37 -12 -23 -13 -29 -1 -35 16 -9 28 -60 15 -68 -12 -7
-10 -85 2 -85 6 0 8 -3 5 -7 -4 -3 -1 -13 6 -21 10 -13 9 -14 -2 -8 -10 7 -11
3 -5 -15 4 -13 8 -34 9 -46 1 -12 7 -29 15 -38 11 -13 10 -15 -6 -8 -17 6 -18
5 -4 -13 8 -10 20 -22 25 -26 6 -4 2 -8 -9 -8 -15 0 -16 -3 -6 -15 6 -8 9 -19
6 -24 -4 -5 2 -14 11 -20 10 -6 14 -11 9 -11 -5 0 -2 -8 6 -17 26 -29 38 -86
22 -101 -8 -7 -14 -8 -14 -3 0 5 -13 9 -29 9 -29 -1 -29 -1 -8 -18 l21 -17
-22 -12 c-17 -9 -22 -9 -22 0 0 7 -2 10 -5 7 -3 -3 -2 -13 1 -22 5 -12 9 -14
14 -6 5 8 9 7 13 -5 5 -11 3 -14 -5 -9 -7 5 -9 2 -5 -9 4 -10 -1 -18 -14 -22
-20 -7 -27 -25 -9 -25 6 0 10 5 10 10 0 6 5 10 11 10 5 0 8 -4 5 -9 -4 -5 -1
-11 6 -13 6 -2 12 -12 14 -21 1 -9 -2 -15 -7 -11 -5 3 -7 10 -4 15 8 12 -17
11 -35 -2 -13 -9 -12 -10 3 -5 10 3 16 2 12 -3 -3 -5 1 -12 7 -15 7 -3 2 -3
-12 0 l-25 5 24 -14 c15 -9 19 -16 11 -19 -6 -2 -13 -18 -15 -36 -2 -28 -1
-30 17 -21 11 6 22 8 26 5 3 -3 0 -6 -6 -6 -7 0 -11 -6 -9 -12 1 -7 -6 -12
-15 -12 -10 1 -14 -4 -11 -12 6 -17 15 -18 31 -2 9 9 12 9 12 0 0 -7 -5 -12
-11 -12 -5 0 -7 -4 -4 -10 3 -6 -1 -7 -9 -4 -21 8 -20 -6 2 -22 16 -13 16 -14
-5 -20 -12 -3 -24 -13 -28 -21 -4 -13 -3 -13 9 -4 16 13 49 4 40 -11 -4 -6 -9
-6 -14 2 -5 9 -9 9 -14 1 -4 -6 -3 -11 2 -11 9 0 21 -26 26 -55 1 -5 8 -9 15
-7 7 1 10 -2 6 -8 -7 -12 -38 7 -31 19 1 3 -5 14 -16 24 -10 9 -18 13 -18 8 0
-6 5 -13 11 -16 6 -4 8 -14 5 -22 -4 -9 -2 -11 6 -7 8 5 9 2 5 -9 -4 -10 -2
-16 5 -14 7 1 13 -8 14 -20 1 -13 -4 -23 -10 -24 -6 0 -2 -4 8 -8 11 -4 20
-15 22 -24 1 -10 -2 -15 -7 -11 -5 3 -7 9 -5 13 3 4 -1 8 -9 8 -11 0 -11 -4 0
-21 7 -12 11 -29 10 -39 -3 -14 1 -17 18 -12 21 6 20 5 -3 -15 -16 -14 -19
-20 -8 -16 10 3 20 0 24 -6 4 -7 3 -8 -4 -4 -8 5 -12 -1 -12 -14 0 -12 3 -19
8 -17 4 3 7 -10 7 -29 1 -26 -3 -33 -14 -29 -11 4 -11 2 -3 -8 7 -8 9 -17 5
-20 -3 -4 -2 -7 3 -7 5 0 10 -9 11 -20 1 -13 -2 -18 -9 -14 -7 4 -8 2 -4 -5 4
-6 11 -9 16 -6 4 3 11 -2 14 -11 3 -8 2 -12 -4 -9 -6 3 -10 2 -10 -4 0 -5 9
-12 19 -16 18 -6 22 -27 8 -41 -13 -14 -7 -26 7 -15 11 9 16 9 22 0 4 -7 3 -9
-3 -6 -17 11 -24 -21 -8 -37 16 -16 20 -30 7 -22 -5 3 -9 -1 -9 -10 0 -9 7
-13 21 -9 12 3 15 2 9 -1 -7 -3 -13 -15 -13 -25 0 -11 4 -18 9 -15 4 3 7 -6 5
-19 -1 -14 4 -31 11 -39 8 -7 12 -25 11 -39 -2 -14 0 -26 3 -25 3 0 15 0 25
-1 19 -1 19 -1 1 -15 -18 -13 -17 -14 8 -41 14 -16 24 -32 21 -37 -3 -4 2 -8
11 -8 9 0 13 -4 10 -10 -3 -5 -1 -10 4 -10 6 0 11 -7 11 -15 0 -8 4 -15 10
-15 9 0 40 -50 41 -67 0 -5 4 -12 9 -18 4 -5 7 -25 6 -43 0 -17 3 -32 9 -32 5
0 4 -5 -3 -12 -7 -7 -8 -17 -3 -27 5 -9 9 -44 9 -78 0 -33 2 -65 5 -70 3 -5
-3 -16 -14 -23 -10 -8 -19 -19 -19 -24 0 -5 -11 -19 -26 -32 -14 -13 -23 -24
-20 -24 4 0 -2 -8 -11 -18 -10 -11 -21 -17 -25 -15 -5 2 -8 -4 -9 -14 0 -11
-3 -13 -6 -5 -4 11 -9 10 -26 -1 -12 -8 -30 -13 -39 -11 -21 3 -23 -6 -6 -26
7 -8 3 -6 -10 4 -21 18 -28 13 -23 -17 1 -5 -3 -6 -9 -2 -6 3 -8 10 -5 15 3 5
1 12 -5 15 -6 4 -9 1 -8 -6 2 -6 -3 -14 -11 -17 -9 -3 -11 0 -6 8 5 9 4 11 -3
6 -7 -4 -12 -15 -12 -24 -1 -15 -3 -14 -16 3 -15 19 -15 19 -9 -10 5 -21 4
-26 -3 -16 -6 8 -17 16 -26 17 -12 2 -14 -2 -6 -17 9 -17 8 -18 -12 -10 -17 6
-29 4 -45 -9 -12 -10 -19 -21 -15 -26 4 -5 0 -3 -10 4 -11 9 -18 10 -23 2 -3
-6 -11 -7 -17 -4 -7 4 -8 2 -4 -5 6 -8 12 -9 20 -2 9 8 13 7 13 -3 0 -8 -13
-12 -37 -12 -23 1 -37 -3 -37 -11 0 -7 5 -9 10 -6 6 3 7 1 3 -6 -6 -9 -11 -9
-24 1 -12 10 -14 10 -8 1 4 -7 3 -13 -1 -13 -5 0 -15 6 -22 13 -11 10 -13 10
-7 0 4 -7 5 -13 2 -13 -2 0 -12 -3 -22 -7 -13 -5 -15 -3 -10 8 4 8 -2 3 -14
-11 -14 -16 -20 -19 -16 -8 3 10 0 20 -6 24 -6 4 -8 3 -5 -3 4 -6 -1 -19 -9
-29 -9 -10 -13 -14 -10 -7 9 17 -16 22 -44 8 -14 -7 -35 -11 -47 -9 -24 4 -31
-10 -11 -22 6 -4 8 -3 4 4 -7 12 20 10 31 -3 4 -4 3 -5 -4 -1 -6 3 -14 2 -18
-4 -4 -7 -12 -7 -26 0 -21 12 -26 1 -8 -17 8 -8 8 -13 0 -18 -7 -3 -10 -1 -9
6 2 7 -6 15 -16 17 -15 3 -17 0 -12 -14 6 -18 5 -18 -9 0 -8 10 -12 24 -8 30
3 6 2 7 -3 3 -5 -5 -9 -18 -9 -30 0 -16 -6 -22 -22 -23 -12 -1 -20 2 -17 7 2
4 12 6 22 3 14 -5 14 -4 2 4 -9 7 -19 7 -26 2 -6 -6 -14 -7 -18 -3 -4 4 -4 0
-1 -8 10 -25 -46 -61 -60 -39 -3 5 3 7 14 5 11 -2 26 4 33 13 11 14 10 15 -7
8 -11 -4 -27 -9 -35 -10 -8 -2 -15 -10 -15 -19 0 -8 -4 -19 -9 -24 -5 -4 -7
-3 -3 2 3 6 2 17 -4 25 -7 12 -9 12 -9 2 0 -9 -11 -13 -33 -11 -37 3 -60 -7
-51 -23 4 -7 2 -8 -5 -4 -6 4 -9 11 -6 16 3 5 0 12 -6 16 -8 4 -9 3 -5 -4 4
-7 2 -12 -5 -12 -8 0 -7 -5 2 -17 13 -16 12 -17 -3 -4 -17 12 -23 9 -19 -12 1
-5 -3 -6 -9 -2 -6 3 -7 11 -4 17 5 8 1 9 -10 5 -9 -4 -14 -3 -11 2 3 5 0 13
-6 17 -7 4 -9 3 -5 -4 3 -6 2 -13 -4 -17 -6 -4 -8 -10 -6 -14 3 -4 -1 -8 -9
-8 -11 0 -12 5 -3 21 11 20 10 20 -9 4 -15 -14 -22 -15 -33 -5 -8 6 -6 1 5
-13 l20 -24 -29 18 c-16 10 -25 12 -21 5 6 -9 3 -11 -9 -6 -14 6 -17 3 -12 -8
4 -13 2 -14 -14 -5 -24 13 -37 -4 -20 -25 9 -11 9 -15 1 -15 -6 0 -11 5 -11
11 0 8 -5 8 -15 -1 -8 -7 -15 -9 -15 -4 0 5 -7 0 -15 -10 -8 -11 -15 -15 -15
-8 0 6 -9 9 -20 7 -11 -2 -18 -1 -16 4 3 4 0 13 -5 21 -9 13 -10 13 -6 0 2 -8
0 -23 -5 -33 -8 -16 -7 -18 11 -12 12 3 21 2 21 -2 0 -5 -18 -9 -39 -9 -22 0
-37 4 -35 8 8 13 -11 9 -25 -4 -8 -7 -11 -8 -8 -2 3 6 0 11 -8 11 -10 0 -11
-5 -4 -18 14 -27 11 -30 -10 -12 -11 9 -17 21 -14 26 3 6 1 7 -5 3 -6 -4 -9
-13 -6 -20 7 -17 -25 -49 -42 -42 -7 3 -15 0 -17 -7 -3 -9 -8 -8 -21 2 -15 13
-16 12 -7 -12 8 -21 7 -25 -4 -20 -8 3 -13 9 -10 13 7 11 -22 6 -32 -5 -4 -4
-2 -5 5 -1 6 4 12 2 12 -5 0 -7 -8 -9 -21 -6 -17 5 -18 3 -7 -11 11 -13 11
-14 -1 -8 -10 7 -12 3 -6 -15 7 -23 7 -23 -8 -4 -8 10 -13 26 -10 35 3 10 1 9
-7 -3 -6 -9 -17 -15 -23 -11 -7 3 -2 -3 10 -14 20 -18 21 -21 6 -27 -10 -3
-14 -3 -10 1 7 7 -21 33 -37 34 -6 0 -1 -7 10 -15 18 -13 18 -14 1 -15 -10 0
-15 -5 -12 -10 4 -6 11 -7 17 -4 7 4 8 2 4 -5 -4 -6 -12 -9 -17 -6 -16 11 -50
14 -44 5 3 -5 -2 -13 -10 -18 -9 -4 -17 -18 -18 -29 -1 -13 -6 -19 -15 -16 -9
4 -10 9 -3 16 14 14 14 27 1 27 -5 0 -9 -6 -7 -12 1 -7 -4 -12 -10 -11 -17 4
-16 -2 3 -21 14 -15 13 -16 -6 -16 -12 0 -19 -4 -15 -9 3 -5 1 -12 -4 -15 -5
-4 -13 -1 -17 5 -5 8 -3 9 7 4 11 -7 12 -6 2 7 -7 8 -11 18 -8 21 3 4 2 5 -1
3 -3 -2 -6 -8 -6 -13 0 -17 -19 -43 -27 -38 -5 2 -15 -3 -22 -13 -12 -15 -12
-16 1 -5 13 10 18 8 29 -9 7 -11 8 -17 2 -13 -6 3 -11 1 -11 -4 0 -6 -5 -11
-11 -11 -8 0 -7 6 2 17 10 12 5 11 -17 -5 -17 -12 -33 -19 -36 -17 -3 3 -4
-10 -3 -27 2 -21 -4 -41 -17 -55 -11 -12 -17 -27 -13 -33 4 -7 -2 -9 -20 -6
-15 3 -25 2 -21 -1 3 -3 1 -12 -4 -19 -8 -8 -6 -17 7 -30 17 -16 16 -17 -10
-12 -15 3 -25 3 -22 0 2 -3 0 -11 -6 -19 -6 -7 -8 -13 -4 -13 4 0 2 -6 -4 -14
-9 -11 -8 -18 4 -30 19 -19 5 -22 -14 -3 -11 10 -13 9 -7 -1 4 -7 0 -15 -10
-19 -14 -5 -13 -8 7 -18 l22 -13 -21 -6 c-12 -4 -20 -11 -17 -16 3 -5 1 -11
-5 -15 -6 -4 -8 -12 -4 -18 3 -7 -4 -1 -16 13 -20 23 -21 23 -10 2 9 -18 8
-23 -4 -28 -8 -3 -18 -14 -21 -25 -4 -11 -11 -16 -17 -13 -7 4 -8 2 -4 -5 4
-6 11 -9 16 -6 5 3 11 1 15 -5 5 -8 -13 -14 -36 -12 -10 2 -5 -32 6 -41 6 -5
-3 -6 -20 -3 -28 5 -28 5 -7 -6 23 -12 28 -23 13 -33 -6 -3 -8 -14 -6 -25 3
-17 1 -19 -16 -10 -10 6 -19 7 -18 3 4 -16 -13 -43 -24 -36 -6 4 -7 1 -2 -7 6
-10 13 -7 27 11 l18 24 -8 -25 c-5 -14 -8 -31 -6 -38 1 -7 0 -8 -3 -2 -6 14
-30 13 -39 -2 -4 -7 -3 -8 4 -4 6 3 16 -2 22 -13 7 -13 7 -22 0 -26 -6 -4 -7
-12 -3 -18 3 -7 -4 -3 -17 8 l-23 20 12 -22 c6 -13 8 -23 4 -23 -4 0 -1 -5 7
-11 13 -9 13 -10 0 -8 -8 1 -24 1 -35 0 -16 -1 -17 -3 -5 -10 8 -6 18 -7 22
-5 4 3 5 -2 2 -10 -3 -8 -12 -12 -19 -10 -7 3 -16 0 -21 -7 -4 -7 -3 -10 3 -6
6 4 14 0 17 -9 4 -11 2 -15 -6 -11 -7 2 -19 -2 -27 -10 -12 -13 -11 -14 6 -9
13 4 20 2 20 -8 0 -8 -6 -12 -14 -9 -9 4 -11 0 -7 -11 4 -10 1 -16 -7 -16 -7
0 -9 -3 -6 -6 4 -4 13 -1 22 6 13 11 14 10 9 -4 -3 -9 -12 -16 -19 -16 -8 0
-17 -4 -20 -10 -3 -5 0 -7 8 -4 8 3 14 -2 14 -11 0 -9 -6 -14 -14 -11 -8 3
-11 1 -8 -4 3 -5 -3 -18 -14 -29 -13 -13 -16 -21 -8 -24 9 -3 8 -8 -2 -20 -7
-10 -10 -17 -5 -17 5 0 2 -5 -6 -10 -12 -8 -10 -10 9 -10 19 0 21 3 12 14 -9
10 -9 16 -1 21 6 4 14 4 17 1 4 -3 1 -6 -7 -6 -10 0 -10 -3 0 -15 10 -12 9
-16 -3 -21 -9 -3 -14 -15 -13 -28 2 -16 -2 -23 -12 -22 -12 1 -16 -9 -16 -41
0 -23 -3 -40 -8 -37 -5 3 -6 9 -3 14 3 5 1 11 -4 15 -6 3 -8 -4 -5 -17 3 -13
7 -30 8 -38 2 -8 -3 -24 -10 -34 -10 -14 -11 -23 -2 -33 6 -7 8 -13 4 -13 -3
0 -9 0 -13 0 -5 0 -8 5 -8 10 0 16 -19 12 -21 -5 -1 -8 1 -13 6 -10 10 6 19
-16 12 -33 -3 -10 -7 -10 -20 0 -13 11 -14 10 -5 -7 6 -11 8 -26 5 -34 -2 -8
0 -11 6 -7 6 3 9 -1 7 -11 -1 -10 -9 -17 -19 -15 -9 2 -16 -2 -16 -8 0 -5 5
-10 11 -10 5 0 7 -5 4 -10 -4 -6 -12 -7 -18 -4 -9 5 -9 3 0 -6 10 -11 15 -11
30 1 17 13 17 13 4 -4 -8 -10 -22 -16 -31 -14 -9 2 -17 -2 -17 -9 0 -7 5 -11
10 -7 5 3 6 -4 2 -17 -5 -17 -4 -21 5 -15 9 5 11 4 6 -3 -4 -7 -14 -12 -22
-12 -8 0 -14 -5 -14 -11 0 -5 4 -7 10 -4 12 7 2 -23 -14 -44 -8 -11 -8 -13 0
-8 6 3 11 0 11 -7 0 -8 -6 -12 -14 -9 -9 4 -11 0 -6 -13 5 -13 3 -15 -8 -9
-11 6 -12 5 -1 -6 15 -17 16 -33 0 -23 -8 5 -9 2 -5 -9 4 -11 1 -17 -9 -17 -8
0 -13 -4 -10 -8 3 -5 -2 -21 -10 -36 -18 -37 -18 -45 2 -20 14 18 14 17 2 -6
-7 -14 -12 -28 -13 -32 0 -4 -7 -13 -15 -20 -12 -11 -12 -11 -2 4 11 13 10 18
0 24 -7 4 -10 4 -6 -1 4 -4 3 -14 -3 -21 -6 -8 -7 -14 0 -18 14 -9 2 -36 -15
-36 -12 0 -13 -4 -3 -23 12 -21 11 -21 -6 -7 -17 14 -18 14 -5 -10 l13 -25
-24 20 c-20 17 -21 17 -9 2 12 -16 12 -20 -1 -29 -11 -8 -11 -9 4 -4 9 3 17 1
17 -4 0 -6 -9 -10 -20 -10 -11 0 -21 -4 -21 -10 -3 -20 -4 -25 -13 -39 -6 -10
-5 -12 2 -7 8 5 11 -3 8 -25 -1 -17 -11 -36 -20 -41 -16 -9 -16 -8 -1 21 8 17
13 31 11 31 -3 0 -12 -14 -21 -30 -11 -22 -13 -35 -6 -49 8 -15 7 -18 -7 -17
-11 1 -16 -5 -14 -17 2 -10 -7 -27 -20 -38 -13 -11 -18 -18 -12 -15 7 3 15 -1
18 -10 3 -8 2 -12 -4 -9 -6 3 -10 1 -10 -5 0 -6 -4 -9 -9 -5 -5 3 -13 0 -17
-6 -5 -8 -3 -9 6 -4 10 6 12 4 7 -8 -4 -10 -1 -17 5 -17 6 0 8 -3 5 -6 -4 -4
-14 -1 -23 7 -16 13 -16 12 -6 -8 13 -24 16 -40 5 -30 -8 9 -37 -32 -38 -55
-1 -15 1 -16 14 -5 14 11 14 10 2 -6 -8 -10 -20 -16 -28 -13 -10 4 -11 1 -3
-14 8 -15 6 -21 -7 -29 -10 -6 -12 -11 -5 -11 6 0 12 -4 12 -10 0 -5 -7 -7
-15 -4 -13 5 -14 2 -6 -18 8 -23 7 -25 -15 -22 -13 1 -22 -2 -18 -7 3 -5 10
-6 16 -3 7 4 8 2 4 -5 -4 -6 -2 -19 5 -27 10 -12 10 -15 -2 -12 -8 2 -13 -3
-11 -11 2 -11 0 -12 -11 -3 -12 10 -13 8 -9 -14 3 -19 1 -25 -7 -20 -10 6 -15
-6 -12 -26 0 -5 -4 -8 -10 -8 -5 0 -8 -4 -4 -9 3 -6 -3 -15 -12 -21 -16 -10
-16 -11 -1 -6 10 3 20 1 23 -4 4 -6 -1 -10 -9 -10 -8 0 -18 -5 -22 -12 -4 -6
-3 -8 3 -5 15 10 24 -18 10 -32 -6 -6 -7 -11 -3 -11 5 0 3 -7 -4 -15 -9 -10
-9 -15 -1 -15 8 0 8 -6 -1 -20 -7 -11 -17 -20 -22 -20 -4 0 -4 6 2 13 6 7 9
22 8 32 -2 11 1 25 5 31 6 7 4 16 -5 23 -12 10 -14 9 -12 -6 2 -10 -2 -21 -8
-25 -8 -6 -8 -8 1 -8 7 0 10 -9 7 -22 -3 -13 -6 -29 -6 -36 -1 -7 -8 -10 -17
-7 -13 4 -12 2 2 -9 22 -17 22 -28 0 -24 -10 2 -18 -3 -18 -12 -1 -8 -6 -14
-11 -13 -6 1 -11 -4 -11 -12 0 -8 4 -12 9 -9 4 3 8 0 8 -6 0 -6 6 -8 13 -4 7
4 9 3 4 -2 -5 -5 -17 -9 -28 -9 -10 0 -19 -4 -20 -10 0 -5 -6 -16 -12 -24 -9
-11 -9 -13 0 -8 6 4 14 3 18 -3 3 -5 -1 -10 -11 -10 -12 0 -14 -3 -6 -13 7 -8
7 -18 2 -27 -5 -8 -6 -19 -3 -25 3 -5 0 -5 -7 2 -11 10 -11 15 0 28 8 10 9 15
1 15 -6 0 -11 -5 -11 -11 0 -5 -4 -8 -8 -5 -5 3 -9 -1 -9 -9 0 -8 4 -15 9 -15
4 0 8 -5 8 -11 0 -5 -4 -8 -9 -4 -5 3 -13 0 -17 -6 -4 -7 -3 -9 3 -6 6 4 14 0
17 -9 3 -8 2 -12 -4 -9 -6 3 -10 1 -10 -6 0 -8 -5 -8 -17 2 -17 13 -17 12 -2
-6 8 -11 14 -28 11 -38 -3 -15 -6 -16 -20 -5 -16 12 -16 11 -1 -7 11 -13 14
-27 9 -40 -4 -12 -1 -29 9 -44 l16 -24 -30 17 c-17 10 -22 12 -12 3 9 -8 17
-24 17 -35 0 -14 5 -20 14 -16 19 7 27 -8 14 -26 -8 -12 -9 -12 -4 2 4 13 0
17 -14 15 -11 -2 -23 -7 -27 -12 -5 -4 -2 -5 4 -1 7 4 13 5 13 2 0 -2 3 -12 7
-22 5 -13 3 -15 -7 -9 -9 6 -11 4 -6 -4 5 -7 14 -10 22 -7 8 3 11 0 8 -9 -3
-8 -12 -11 -20 -8 -8 3 -14 0 -14 -7 0 -6 4 -9 9 -5 5 3 12 1 16 -5 4 -6 10
-8 14 -6 4 3 8 -1 8 -9 0 -8 -4 -12 -9 -9 -4 3 -8 1 -8 -5 0 -5 3 -11 8 -14 4
-2 2 -3 -5 -1 -6 1 -19 -4 -30 -11 -17 -13 -16 -14 7 -9 20 5 22 3 10 -5 -13
-9 -12 -11 5 -11 16 0 17 -2 5 -9 -8 -6 -17 -8 -20 -6 -4 2 -7 -2 -7 -10 0
-11 3 -12 14 -3 12 10 12 7 2 -15 -7 -15 -17 -23 -23 -20 -6 4 -6 0 1 -9 7 -8
10 -17 7 -20 -3 -3 -1 -9 4 -12 5 -3 9 4 8 16 0 12 6 23 14 25 9 3 11 1 4 -4
-6 -4 -10 -20 -9 -35 1 -17 -2 -25 -11 -21 -6 2 -15 -1 -19 -7 -3 -6 -1 -9 6
-8 7 2 13 -8 14 -24 1 -16 -3 -24 -10 -22 -6 3 -12 -2 -12 -11 0 -9 6 -14 14
-11 7 3 13 1 13 -4 0 -6 -8 -10 -17 -10 -15 0 -16 -2 -3 -10 13 -8 12 -10 -2
-10 -10 0 -18 -5 -18 -11 0 -5 4 -7 10 -4 5 3 10 1 10 -4 0 -6 -4 -11 -9 -11
-5 0 -12 -7 -15 -16 -5 -14 -4 -15 8 -5 11 9 16 9 22 0 5 -8 3 -9 -6 -4 -10 6
-12 3 -7 -14 4 -18 3 -20 -9 -10 -12 10 -13 9 -8 -6 5 -13 4 -16 -4 -11 -8 5
-10 2 -5 -9 4 -12 8 -13 13 -5 5 8 9 7 13 -5 5 -11 3 -14 -5 -9 -8 5 -9 2 -5
-9 3 -9 1 -19 -5 -23 -6 -4 -8 -3 -5 3 4 6 -1 17 -11 24 -15 13 -16 12 -3 -3
7 -10 11 -18 7 -18 -4 0 0 -13 9 -29 11 -22 12 -32 3 -37 -6 -4 -8 -3 -4 4 3
6 2 13 -3 16 -5 4 -8 -2 -6 -11 2 -10 4 -22 4 -27 1 -5 11 -1 24 10 22 19 22
19 4 -2 -9 -11 -14 -24 -10 -29 5 -4 0 -5 -9 -2 -10 3 -20 1 -24 -5 -4 -6 -3
-8 3 -5 6 4 14 -1 18 -11 6 -16 7 -16 21 2 19 26 18 17 -2 -23 -10 -21 -21
-30 -31 -27 -8 4 -11 1 -7 -5 3 -6 15 -9 25 -6 16 4 17 2 8 -15 -18 -34 -18
-55 2 -77 22 -23 25 -36 7 -25 -7 4 -10 4 -6 -1 4 -4 2 -15 -5 -23 -9 -13 -9
-14 0 -8 7 4 20 3 29 -2 15 -8 15 -10 0 -15 -12 -5 -15 -3 -10 6 5 8 2 7 -9
-2 -22 -17 -21 -19 5 -17 11 0 23 -6 25 -14 4 -12 2 -12 -5 -2 -7 10 -12 9
-23 -4 -9 -12 -10 -15 -2 -10 8 4 13 2 13 -4 0 -6 5 -8 12 -4 6 4 8 3 4 -4 -3
-6 -15 -9 -26 -7 -12 2 -18 0 -15 -6 4 -5 11 -7 16 -4 5 4 9 -1 9 -10 0 -10
-5 -13 -13 -9 -9 6 -9 4 1 -8 10 -13 10 -17 0 -21 -10 -3 -8 -10 6 -23 13 -13
16 -13 7 -2 -8 11 -9 18 -1 23 6 3 8 11 5 16 -4 5 -1 9 4 9 14 0 14 -17 1 -25
-16 -10 -1 -25 18 -18 14 5 14 3 -2 -9 -12 -10 -16 -20 -11 -29 5 -8 0 -7 -12
4 -16 14 -20 14 -20 2 0 -8 4 -12 9 -9 12 8 10 -10 -3 -23 -8 -8 -8 -13 0 -17
6 -4 11 -12 11 -17 0 -6 -4 -8 -8 -5 -5 3 -9 -1 -9 -8 0 -7 6 -13 13 -13 7 0
12 5 11 10 -1 5 5 12 13 14 13 4 13 3 0 -6 -8 -6 -11 -11 -6 -11 5 0 3 -6 -3
-14 -8 -10 -9 -21 -3 -33 11 -21 5 -46 -10 -37 -5 3 -4 -3 3 -14 11 -17 16
-19 29 -9 13 11 13 10 1 -6 -13 -17 -15 -17 -35 0 -15 13 -17 14 -8 2 6 -9 8
-20 4 -24 -4 -5 -2 -5 5 -1 8 4 11 -3 11 -23 -1 -19 -5 -28 -12 -24 -6 4 -5
-1 3 -10 7 -9 10 -17 6 -17 -4 0 -2 -7 5 -15 10 -12 10 -18 1 -29 -8 -10 -9
-16 -1 -21 6 -3 8 -11 5 -16 -3 -5 1 -6 9 -3 9 3 16 1 16 -5 0 -6 -8 -11 -17
-12 -14 0 -14 -2 3 -9 12 -5 25 -14 30 -21 4 -7 3 -10 -3 -6 -6 4 -14 -1 -18
-11 -14 -31 -13 -42 2 -42 12 0 13 3 4 14 -15 18 5 34 22 17 9 -9 7 -11 -8 -5
-17 6 -18 5 -7 -7 10 -11 8 -17 -10 -31 -13 -11 -16 -16 -7 -12 10 3 20 1 23
-5 4 -7 -146 -10 -454 -11 l-460 -1 0 4651 0 4650 2160 0 c1408 0 2160 -4
2160 -10z m4980 -4640 l0 -4650 -226 0 c-210 0 -225 1 -220 18 3 9 8 42 11 72
3 30 8 67 10 83 11 65 14 87 25 167 6 47 13 96 15 110 2 14 7 48 11 75 3 28
10 73 14 100 5 28 9 177 9 332 1 217 -2 297 -14 350 -8 37 -17 79 -19 93 -2
14 -21 102 -41 195 -20 94 -38 179 -40 190 -3 11 -18 88 -36 170 -17 83 -32
158 -34 168 -2 10 -6 26 -9 35 -3 9 -8 37 -11 62 -4 24 -8 47 -10 51 -4 5 -62
281 -71 339 -3 14 -7 32 -10 40 -4 12 -29 127 -50 240 -3 14 -16 77 -30 140
-31 145 -55 258 -60 290 -3 14 -7 33 -10 42 -3 9 -7 27 -9 40 -3 13 -9 46 -15
74 -6 28 -13 61 -15 75 -3 13 -16 76 -30 139 -14 63 -36 170 -50 237 -22 107
-35 142 -114 302 -85 174 -92 186 -187 289 -194 210 -173 193 -404 319 -14 8
-41 23 -60 35 -19 11 -114 65 -210 121 -776 444 -927 533 -945 555 -11 14 -35
43 -53 66 -18 23 -39 48 -45 56 -7 9 -37 47 -68 85 l-56 70 2 135 2 135 165
390 c140 332 167 404 181 485 10 52 19 105 21 116 2 12 7 39 10 60 4 22 8 46
11 54 2 8 6 31 9 50 3 19 12 71 20 115 9 44 18 96 21 115 3 19 8 46 10 60 3
14 8 36 10 50 3 14 8 41 11 60 3 19 11 64 18 100 14 75 13 94 -9 410 -1 19 -5
80 -9 135 -24 346 -27 379 -35 390 -91 117 -250 317 -270 341 -14 17 -98 81
-186 143 -88 62 -164 117 -169 122 -6 5 662 9 1617 9 l1627 0 0 -4650z m-5180
4526 c0 -3 -4 -8 -10 -11 -5 -3 -10 -1 -10 4 0 6 5 11 10 11 6 0 10 -2 10 -4z
m-120 -80 c0 -3 -4 -8 -10 -11 -5 -3 -10 -1 -10 4 0 6 5 11 10 11 6 0 10 -2
10 -4z m-110 -96 c0 -5 -5 -10 -11 -10 -5 0 -7 5 -4 10 3 6 8 10 11 10 2 0 4
-4 4 -10z m-165 -390 c-3 -5 -1 -10 6 -10 7 0 10 -3 6 -6 -9 -9 -28 6 -22 17
4 5 8 9 11 9 3 0 2 -4 -1 -10z m-5 -54 c0 -2 -7 -7 -16 -10 -8 -3 -12 -2 -9 4
6 10 25 14 25 6z m-7 -436 c3 -11 1 -18 -4 -14 -5 3 -9 12 -9 20 0 20 7 17 13
-6z m-3 -80 c0 -5 -5 -10 -11 -10 -5 0 -7 5 -4 10 3 6 8 10 11 10 2 0 4 -4 4
-10z m20 -110 c0 -5 -2 -10 -4 -10 -3 0 -8 5 -11 10 -3 6 -1 10 4 10 6 0 11
-4 11 -10z m0 -34 c0 -3 -4 -8 -10 -11 -5 -3 -10 -1 -10 4 0 6 5 11 10 11 6 0
10 -2 10 -4z m14 -625 c3 -5 -1 -14 -8 -20 -12 -10 -14 -9 -11 6 2 10 4 19 4
21 2 5 10 2 15 -7z m211 -1021 c3 -5 1 -10 -4 -10 -6 0 -11 5 -11 10 0 6 2 10
4 10 3 0 8 -4 11 -10z m-261 -706 c3 -8 2 -12 -4 -9 -6 3 -10 10 -10 16 0 14
7 11 14 -7z m-174 -88 c0 -3 -4 -8 -10 -11 -5 -3 -10 -1 -10 4 0 6 5 11 10 11
6 0 10 -2 10 -4z m-128 -28 c-7 -7 -12 -8 -12 -2 0 14 12 26 19 19 2 -3 -1
-11 -7 -17z m-571 -181 c-13 -13 -26 -3 -16 12 3 6 11 8 17 5 6 -4 6 -10 -1
-17z m-50 -4 c13 -16 12 -17 -3 -4 -10 7 -18 15 -18 17 0 8 8 3 21 -13z m-505
-235 c4 -7 3 -8 -5 -4 -6 4 -14 0 -17 -8 -3 -9 -11 -16 -17 -16 -5 0 -2 9 8
20 21 23 22 24 31 8z m-132 -119 c-3 -5 -10 -7 -15 -3 -5 3 -7 10 -3 15 3 5
10 7 15 3 5 -3 7 -10 3 -15z m-70 -51 c-5 -8 -2 -9 9 -5 9 3 19 1 23 -5 4 -6
3 -8 -4 -4 -6 3 -17 -1 -26 -9 -9 -9 -17 -11 -21 -5 -3 5 -1 10 4 10 6 0 10 3
10 8 -2 12 1 22 7 22 3 0 2 -5 -2 -12z m-31 -93 c-3 -9 -8 -14 -10 -11 -3 3
-2 9 2 15 9 16 15 13 8 -4z m-48 -42 c-2 -10 -4 -19 -4 -21 -1 -2 -6 0 -11 3
-8 5 -7 11 1 21 15 18 18 18 14 -3z m-35 -81 c-6 -2 -8 -7 -6 -11 3 -4 -1 -8
-9 -8 -8 0 -11 5 -7 11 4 6 7 14 8 19 1 4 2 10 3 15 1 4 6 0 11 -8 6 -10 6
-16 0 -18z m-70 -172 c0 -5 -3 -9 -7 -9 -27 4 -35 -1 -23 -16 11 -13 10 -14
-4 -9 -21 8 -20 20 2 33 22 13 32 14 32 1z m-50 -95 c0 -5 -5 -3 -10 5 -5 8
-10 20 -10 25 0 6 5 3 10 -5 5 -8 10 -19 10 -25z m-177 -457 c-4 -7 -8 -16 -9
-20 -1 -5 -2 -11 -3 -14 0 -3 -6 -2 -12 1 -7 5 -4 14 7 26 19 22 29 25 17 7z
m-205 -742 c-7 -8 -15 -12 -17 -11 -5 6 10 25 20 25 5 0 4 -6 -3 -14z m-118
-262 c0 -8 -5 -12 -10 -9 -6 4 -8 11 -5 16 9 14 15 11 15 -7z m-130 -338 c0
-3 -4 -8 -10 -11 -5 -3 -10 -1 -10 4 0 6 5 11 10 11 6 0 10 -2 10 -4z m-123
-309 c0 -8 -6 -14 -13 -14 -7 0 -10 6 -7 14 3 7 8 13 12 13 4 0 8 -6 8 -13z
m-82 -236 c-9 -8 -36 -10 -30 -2 2 4 11 8 20 8 8 0 13 -3 10 -6z m-41 -62 c-8
-14 -21 -11 -21 5 0 8 6 12 14 9 7 -3 10 -9 7 -14z m-34 -119 c0 -5 -2 -10 -4
-10 -3 0 -8 5 -11 10 -3 6 -1 10 4 10 6 0 11 -4 11 -10z m-15 -60 c3 -6 -1 -7
-9 -4 -18 7 -21 14 -7 14 6 0 13 -4 16 -10z m-8 -45 c0 -8 -4 -15 -9 -15 -10
0 -11 14 -1 23 9 10 10 9 10 -8z m-6 -42 c13 -17 13 -17 -6 -3 -11 8 -22 16
-24 17 -2 2 0 3 6 3 6 0 17 -8 24 -17z m-31 -647 c0 -3 -4 -8 -10 -11 -5 -3
-10 -1 -10 4 0 6 5 11 10 11 6 0 10 -2 10 -4z m-12 -223 c-2 -10 3 -24 12 -31
13 -11 12 -12 -7 -3 -12 7 -20 18 -18 28 5 24 4 23 11 23 3 0 4 -8 2 -17z m42
-324 c0 -11 -29 -19 -34 -10 -3 5 -3 10 -1 13 8 7 35 5 35 -3z m2 -76 c-6 -2
-9 -10 -6 -15 4 -7 2 -8 -5 -4 -13 9 -5 26 12 25 9 0 8 -2 -1 -6z m-6 -61
c-17 -16 -18 -16 -5 5 7 12 15 20 18 17 3 -2 -3 -12 -13 -22z m4 -102 c0 -5
-5 -10 -11 -10 -5 0 -7 5 -4 10 3 6 8 10 11 10 2 0 4 -4 4 -10z m-1 -67 c-13
-15 -12 -16 6 -9 15 5 17 4 8 -5 -18 -18 -35 -2 -21 21 7 11 14 17 17 15 2 -3
-2 -12 -10 -22z"/>
<path d="M4187 9125 c3 -8 9 -12 14 -9 12 7 11 11 -5 17 -10 4 -13 1 -9 -8z"/>
<path d="M4167 8453 c-10 -9 -9 -23 1 -23 5 0 9 7 9 15 0 17 -1 18 -10 8z"/>
<path d="M4190 7940 c20 -13 33 -13 25 0 -3 6 -14 10 -23 10 -15 0 -15 -2 -2
-10z"/>
<path d="M4173 7875 c0 -8 4 -12 9 -9 5 3 6 10 3 15 -9 13 -12 11 -12 -6z"/>
<path d="M4200 7439 c0 -5 5 -7 10 -4 6 3 10 8 10 11 0 2 -4 4 -10 4 -5 0 -10
-5 -10 -11z"/>
<path d="M4234 7233 c2 -9 8 -18 15 -19 6 -1 7 0 2 2 -6 3 -7 12 -4 20 3 8 1
14 -5 14 -6 0 -9 -8 -8 -17z"/>
<path d="M4280 7061 c0 -6 4 -13 10 -16 6 -3 7 1 4 9 -7 18 -14 21 -14 7z"/>
<path d="M3395 5780 c3 -5 8 -10 11 -10 2 0 4 5 4 10 0 6 -5 10 -11 10 -5 0
-7 -4 -4 -10z"/>
<path d="M3186 5726 c4 -11 0 -14 -14 -11 -12 2 -26 -2 -32 -10 -9 -10 -7 -13
7 -10 10 2 19 4 21 5 1 2 7 3 14 4 15 1 22 23 9 31 -7 3 -8 0 -5 -9z"/>
<path d="M3062 5676 c7 -8 17 -12 22 -9 4 3 2 9 -5 14 -22 13 -31 11 -17 -5z"/>
<path d="M2954 5642 c7 -11 -5 -16 -31 -13 -6 1 -14 -2 -17 -7 -7 -12 41 -9
54 4 9 9 9 14 -1 19 -8 5 -10 4 -5 -3z"/>
<path d="M2470 5240 c-13 -11 -21 -22 -18 -25 2 -3 15 6 28 20 28 30 22 33
-10 5z"/>
<path d="M2334 4993 c1 -7 6 -16 11 -20 4 -4 5 -3 1 4 -3 6 2 16 11 22 16 9
16 10 -3 8 -12 0 -21 -7 -20 -14z"/>
<path d="M2240 4790 c-12 -7 -12 -11 -2 -20 6 -5 10 -7 7 -4 -3 4 0 13 6 21
13 15 10 16 -11 3z"/>
<path d="M2190 4644 c0 -8 5 -12 10 -9 6 4 8 11 5 16 -9 14 -15 11 -15 -7z"/>
<path d="M2156 4611 c-4 -5 -2 -12 3 -15 5 -4 12 -2 15 3 4 5 2 12 -3 15 -5 4
-12 2 -15 -3z"/>
<path d="M2063 4263 c4 -3 -1 -12 -11 -20 -15 -13 -15 -13 6 -3 19 9 23 30 5
30 -4 0 -3 -3 0 -7z"/>
<path d="M2023 4133 c4 -6 1 -14 -5 -16 -10 -4 -9 -6 1 -6 11 -1 11 -4 0 -18
-13 -16 -12 -17 3 -5 17 13 18 36 3 49 -4 4 -5 3 -2 -4z"/>
<path d="M1690 3200 c0 -5 5 -10 11 -10 5 0 7 5 4 10 -3 6 -8 10 -11 10 -2 0
-4 -4 -4 -10z"/>
<path d="M1330 1965 c0 -8 2 -15 4 -15 2 0 6 7 10 15 3 8 1 15 -4 15 -6 0 -10
-7 -10 -15z"/>
<path d="M1282 1370 c7 -10 14 -18 15 -16 6 6 -9 36 -18 36 -5 0 -4 -9 3 -20z"/>
</g>
</svg>
